<svg xmlns="http://www.w3.org/2000/svg" width="20" height="20" viewBox="0 0 20 20" fill="none">
  <g clip-path="url(#clip0_1_175)">
    <path d="M18.0183 0.835455L18.1932 0.860846L18.3631 0.911627C18.5278 0.973928 18.678 1.0713 18.8035 1.19678C18.9707 1.36407 19.0869 1.57531 19.1385 1.80616C19.1889 2.03238 19.1745 2.26809 19.0984 2.48682L19.0994 2.4878L13.6824 18.3218C13.5997 18.563 13.4447 18.7734 13.239 18.9243C13.0335 19.0751 12.7869 19.16 12.532 19.1665C12.277 19.173 12.0264 19.1006 11.8133 18.9605C11.6003 18.8203 11.4346 18.6189 11.3396 18.3823V18.3814L8.69022 11.773L8.65507 11.6968C8.61594 11.6222 8.56548 11.5534 8.50565 11.4937C8.42617 11.4144 8.33151 11.3518 8.22733 11.3101H8.22635L1.61796 8.65967C1.3813 8.56469 1.17899 8.40007 1.03885 8.18702C0.898759 7.97402 0.827317 7.72312 0.833776 7.46827L0.853308 7.27881C0.88686 7.09216 0.962792 6.9145 1.07596 6.76026C1.22673 6.55491 1.43659 6.40062 1.67753 6.31788L1.6785 6.3169L17.5115 0.900885V0.902838C17.6749 0.845771 17.847 0.822175 18.0183 0.835455ZM3.27909 7.52979L8.84647 9.76319L9.07596 9.86866C9.29935 9.98552 9.50427 10.1362 9.68339 10.3149C9.8625 10.4938 10.0134 10.6982 10.1307 10.9214L10.2361 11.1509L10.2371 11.1519L12.4685 16.7183L17.2469 2.75245L3.27909 7.52979Z" />
    <path d="M17.5488 1.24901C17.8808 0.91701 18.4193 0.91698 18.7513 1.24901C19.0829 1.58097 19.0829 2.11862 18.7513 2.45057L9.45045 11.7512C9.1185 12.0829 8.58093 12.0829 8.24899 11.7512C7.91702 11.4191 7.91699 10.8806 8.24899 10.5486L17.5488 1.24901Z" />
  </g>
  <defs>
    <clipPath id="clip0_1_175">
      <rect width="20" height="20" />
    </clipPath>
  </defs>
</svg>